HIERARCHY
ROOT hip
{
	OFFSET 0.000000 0.000000 0.000000 
	CHANNELS 6 Xposition Yposition Zposition Xrotation Zrotation Yrotation
	JOINT abdomen
	{
		OFFSET 0.000000 3.402643 0.000000 
		CHANNELS 3 Xrotation Zrotation Yrotation
		JOINT chest
		{
			OFFSET 0.000000 8.438565 -0.680529 
			CHANNELS 3 Xrotation Zrotation Yrotation
			JOINT neck
			{
				OFFSET 0.000000 10.207942 -0.272212 
				CHANNELS 3 Xrotation Zrotation Yrotation
				JOINT head
				{
					OFFSET 0.000000 3.130431 0.000000 
					CHANNELS 3 Xrotation Zrotation Yrotation
					End Site
					{
						OFFSET 0.000000 3.130435 0.000000 
					}
				}
			}
			JOINT lCollar
			{
				OFFSET 3.470700 6.669187 -0.816635 
				CHANNELS 3 Yrotation Zrotation Xrotation
				JOINT lShldr
				{
					OFFSET 3.198488 0.000000 0.000000 
					CHANNELS 3 Zrotation Yrotation Xrotation
					JOINT lForeArm
					{
						OFFSET 10.139888 0.000000 0.000000 
						CHANNELS 3 Yrotation Zrotation Xrotation
						JOINT lHand
						{
							OFFSET 8.370511 0.000000 0.000000 
							CHANNELS 3 Zrotation Yrotation Xrotation
							End Site
							{
								OFFSET 4.083176 0.000000 0.000000 
							}
						}
					}
				}
			}
			JOINT rCollar
			{
				OFFSET -3.470700 6.669187 -0.816635 
				CHANNELS 3 Yrotation Zrotation Xrotation
				JOINT rShldr
				{
					OFFSET -3.198488 0.000000 0.000000 
					CHANNELS 3 Zrotation Yrotation Xrotation
					JOINT rForeArm
					{
						OFFSET -10.139888 0.000000 0.000000 
						CHANNELS 3 Yrotation Zrotation Xrotation
						JOINT rHand
						{
							OFFSET -8.370511 0.000000 0.000000 
							CHANNELS 3 Zrotation Yrotation Xrotation
							End Site
							{
								OFFSET -4.083176 0.000000 0.000000 
							}
						}
					}
				}
			}
		}
	}
	JOINT lThigh
	{
		OFFSET 5.308129 -1.633274 1.361059 
		CHANNELS 3 Xrotation Zrotation Yrotation
		JOINT lShin
		{
			OFFSET -2.041588 -20.007561 0.000000 
			CHANNELS 3 Xrotation Zrotation Yrotation
			JOINT lFoot
			{
				OFFSET 0.000000 -19.190928 -1.224953 
				CHANNELS 3 Xrotation Yrotation Zrotation
				End Site
				{
					OFFSET 0.000000 -2.449906 4.627600 
				}
			}
		}
	}
	JOINT rThigh
	{
		OFFSET -5.308129 -1.633274 1.361059 
		CHANNELS 3 Xrotation Zrotation Yrotation
		JOINT rShin
		{
			OFFSET 2.041588 -20.007561 0.000000 
			CHANNELS 3 Xrotation Zrotation Yrotation
			JOINT rFoot
			{
				OFFSET 0.000000 -19.190928 -1.224953 
				CHANNELS 3 Xrotation Yrotation Zrotation
				End Site
				{
					OFFSET 0.000000 -2.449906 4.627600 
				}
			}
		}
	}
}
MOTION
Frames: 8
Frame Time: 0.016667
-2.197930 20.089392 39.234047 -9.937218 1.293904 -4.991385 39.645107 -2.886055 -5.956044 0.867289 2.567648 -2.208303 -5.839819 0.332678 -0.020647 11.762756 -4.613799 12.021572 -7.795518 -5.316364 -0.282682 -52.621006 5.906379 -10.768085 -87.309601 -5.000000 1.371778 -12.083246 -6.268981 7.612338 2.229634 2.957193 -0.160724 63.422253 -7.857338 -15.521233 85.918175 5.000000 1.659508 22.517593 -22.731972 3.162479 -23.941214 12.877179 14.148915 72.337311 -1.373622 -4.699315 1.763387 6.005067 -3.956022 5.213324 -7.772053 -19.353745 31.089478 4.732348 3.128225 -21.419250 -7.325633 -1.846537 
-2.117291 18.940504 40.374516 -9.217695 -0.883173 -6.377848 38.734264 -0.666154 -3.986926 0.930534 2.616593 -2.002909 -6.464914 -0.496825 0.045539 10.907399 -5.069350 13.147980 -7.858306 -6.283185 -0.322863 -53.003929 7.574584 -12.228702 -88.156052 -5.000000 0.949533 -10.805935 -7.382023 5.643218 2.492986 3.025841 -0.154514 61.441116 -6.283879 -13.335080 86.133827 5.000000 1.552277 21.688311 -22.562805 5.287785 -22.993118 14.604154 14.889030 64.536110 -2.045815 -4.674847 1.590846 4.488107 -4.531945 2.782851 -6.884540 -17.058195 37.979046 5.171919 4.579008 -25.039072 -8.810349 -2.430171 
-2.002530 17.844118 41.513702 -8.261980 -3.229335 -8.089116 37.810982 1.696226 -1.864788 1.080300 2.724103 -1.817480 -7.148970 -1.236504 0.117945 9.824826 -5.505090 14.442176 -8.030024 -7.209667 -0.371804 -53.782829 9.324829 -13.940886 -88.544731 -5.000000 0.760747 -9.036687 -8.495770 3.279274 2.786707 3.289161 -0.168149 59.187973 -4.307843 -10.932874 86.117195 5.000000 1.528256 20.578962 -22.323629 7.727149 -21.528532 16.351322 15.876539 55.740639 -2.746842 -4.318754 1.480814 2.229911 -5.071105 -0.293734 -6.059552 -14.407905 45.529972 5.592907 6.409944 -27.427313 -10.491928 -2.548699 
-1.823691 16.796286 42.721035 -7.720637 -5.938811 -9.760521 37.569466 4.571039 0.584367 1.278522 2.899784 -1.895995 -7.756050 -2.080932 0.216070 8.958057 -6.064293 15.743957 -8.047308 -8.086014 -0.428014 -54.811924 10.367105 -15.388628 -88.110588 -5.000000 0.973423 -7.586570 -8.814149 0.320982 2.824885 2.977078 -0.151989 57.658871 -2.190928 -8.867309 85.825836 5.000000 1.601112 19.927971 -22.470547 9.762746 -19.040106 18.188477 16.344538 47.586227 -3.672433 -4.209432 1.543020 1.172238 -5.642610 -2.724277 -4.949264 -13.223222 52.898449 5.126916 7.322405 -28.139380 -10.530985 -2.509824 
-1.548746 15.821306 44.030605 -7.832768 -9.235033 -11.290930 38.373554 8.114400 3.556596 1.547763 3.182510 -2.336017 -8.249121 -3.115545 0.362663 8.434156 -6.836633 17.068007 -7.828990 -8.875990 -0.468785 -56.150673 10.348694 -16.405886 -86.464401 -5.000000 1.808843 -6.808112 -8.043897 -3.459014 2.480576 1.816519 -0.091855 57.128426 0.037400 -7.209631 85.127075 5.000000 1.805418 19.879303 -23.263828 11.204578 -15.056812 20.141962 16.066099 40.351295 -5.011793 -4.460478 2.042138 2.059152 -6.151036 -4.266775 -3.612087 -14.269282 60.035061 3.613170 6.738084 -26.365513 -8.217987 -2.273098 
-1.273801 14.846326 45.340168 -7.859953 -12.540458 -12.842502 39.455601 11.599116 6.639102 1.813496 3.474813 -2.766842 -8.754357 -4.140485 0.508403 7.893027 -7.594074 18.398531 -7.599942 -9.677004 -0.502067 -57.485611 10.307242 -17.418507 -84.799683 -5.000000 2.675907 -6.158907 -7.217016 -7.238225 2.127714 0.646206 -0.031067 56.673687 2.274593 -5.572425 84.434258 5.000000 1.995124 19.812149 -24.071411 12.645474 -11.015291 22.117573 15.911654 33.108082 -6.407447 -4.528964 2.435349 2.934175 -6.638412 -5.858503 -2.303964 -15.330945 67.174019 2.187537 5.942004 -24.564070 -5.945753 -2.072875 
-0.933016 13.736842 46.502266 -7.894106 -14.416246 -15.288335 41.022453 13.300711 8.801753 1.509064 3.328509 -2.658954 -9.020341 -4.470230 0.548414 8.089721 -7.790115 19.769213 -7.819352 -10.174369 -0.527726 -57.426926 9.792408 -17.057093 -84.129417 -5.000000 2.989253 -7.908301 -6.737135 -5.912923 1.678355 -0.329055 0.019343 57.010056 4.023787 -4.044783 84.523849 5.000000 1.851465 20.412161 -25.931078 13.519269 -7.285472 22.709480 18.487640 31.869276 -6.378327 -4.338449 -3.012118 2.990065 -5.708418 -9.846486 -2.251889 -14.807326 74.610313 1.279509 5.100705 -18.968864 -7.038559 -2.136021 
-0.592233 12.627364 47.664364 -7.847973 -16.292744 -17.748352 42.696941 14.929711 11.006104 1.204329 3.182192 -2.560852 -9.296267 -4.799972 0.588415 8.283187 -7.987056 21.131557 -8.029140 -10.661978 -0.554650 -57.367386 9.280498 -16.682974 -83.463570 -5.000000 3.291302 -9.637091 -6.177405 -4.624643 1.229867 -1.314070 0.070253 57.389824 5.752334 -2.501209 84.609024 5.000000 1.714603 20.980051 -27.804453 14.368307 -3.516027 23.163340 21.118986 30.639507 -6.348582 -4.140447 -8.441590 2.901010 -4.773975 -13.854747 -2.157521 -14.295025 82.079453 0.488378 4.128181 -13.274940 -8.128409 -2.068424 
